<?xml version="1.0" standalone="no"?>
<!DOCTYPE svg PUBLIC "-//W3C//DTD SVG 20010904//EN"
 "http://www.w3.org/TR/2001/REC-SVG-20010904/DTD/svg10.dtd">
<svg version="1.0" xmlns="http://www.w3.org/2000/svg"
 width="954.000000pt" height="592.000000pt" viewBox="0 0 954.000000 592.000000"
 preserveAspectRatio="xMidYMid meet">

<g transform="translate(0.000000,592.000000) scale(0.100000,-0.100000)"
fill="#000000" stroke="none">
<path d="M1880 4420 c-76 -10 -125 -27 -191 -66 -69 -42 -139 -115 -173 -182
-56 -111 -56 -98 -56 -1096 0 -1004 -1 -984 58 -1101 30 -60 121 -152 187
-188 107 -60 9 -57 1681 -57 l1532 0 5 29 c8 37 33 61 127 122 l75 49 -1586 0
c-1600 0 -1664 1 -1730 36 -43 22 -90 75 -115 129 l-24 50 0 926 c0 1017 -3
970 60 1049 18 22 55 51 88 67 l57 28 2265 0 2265 0 45 -23 c63 -33 105 -76
132 -136 22 -49 23 -61 26 -373 2 -178 4 -323 6 -323 1 0 36 11 76 25 40 14
84 25 97 25 l23 0 0 313 c0 288 -2 319 -20 372 -51 150 -149 248 -306 307
l-59 23 -2245 1 c-1235 1 -2270 -2 -2300 -6z"/>
<path d="M1920 3920 l0 -130 130 0 130 0 0 -130 0 -130 135 0 135 0 0 130 0
130 125 0 125 0 0 -130 0 -130 135 0 135 0 0 130 0 130 125 0 125 0 0 -130 0
-130 135 0 135 0 0 130 0 130 125 0 125 0 0 -130 0 -130 130 0 130 0 0 130 0
130 130 0 130 0 0 -130 0 -130 130 0 130 0 0 130 0 130 130 0 130 0 0 -130 0
-130 130 0 130 0 0 130 0 130 130 0 130 0 0 -130 0 -130 130 0 130 0 0 130 0
130 130 0 130 0 0 -130 0 -130 130 0 130 0 0 130 0 130 130 0 130 0 0 130 0
130 -130 0 -130 0 0 -130 0 -130 -130 0 -130 0 0 130 0 130 -130 0 -130 0 0
-130 0 -130 -130 0 -130 0 0 130 0 130 -130 0 -130 0 0 -130 0 -130 -130 0
-130 0 0 130 0 130 -130 0 -130 0 0 -130 0 -130 -130 0 -130 0 0 130 0 130
-130 0 -130 0 0 -130 0 -130 -125 0 -125 0 0 130 0 130 -135 0 -135 0 0 -130
0 -130 -125 0 -125 0 0 130 0 130 -135 0 -135 0 0 -130 0 -130 -125 0 -125 0
0 130 0 130 -135 0 -135 0 0 -130 0 -130 -125 0 -125 0 0 130 0 130 -135 0
-135 0 0 -130z"/>
<path d="M2014 3429 c-54 -15 -127 -72 -160 -122 -39 -60 -59 -155 -51 -243
11 -115 67 -202 161 -252 46 -25 61 -27 161 -27 105 0 113 2 165 31 109 61
156 161 148 313 -3 60 -11 102 -28 139 -30 69 -105 137 -173 157 -55 16 -173
19 -223 4z m129 -267 c10 -60 -2 -153 -20 -160 -10 -3 -13 23 -13 108 0 85 3
111 13 108 6 -3 16 -28 20 -56z"/>
<path d="M2494 3405 c-25 -39 -29 -108 -9 -160 l17 -45 57 0 c45 0 62 4 76 20
10 11 24 20 32 20 8 0 -31 -49 -87 -110 -55 -60 -105 -122 -111 -137 -13 -35
-2 -117 22 -165 l19 -38 203 0 c176 0 207 3 243 19 63 28 79 96 45 184 -10 27
-11 27 -108 27 -54 0 -114 -4 -132 -10 -19 -5 -37 -7 -40 -4 -13 13 35 34 91
40 56 6 61 9 113 68 75 84 89 115 83 191 -3 33 -13 75 -22 93 l-17 32 -229 0
-230 0 -16 -25z"/>
<path d="M6795 3333 c-11 -3 -236 -74 -500 -159 -342 -110 -487 -161 -503
-177 -18 -19 -31 -67 -73 -277 -28 -140 -54 -266 -56 -280 -3 -14 -16 -83 -29
-155 -19 -99 -29 -134 -45 -147 -11 -9 -138 -92 -282 -184 -144 -91 -274 -179
-289 -195 -35 -36 -35 -52 1 -164 20 -64 26 -97 20 -113 -25 -65 3 -167 57
-212 16 -14 41 -47 54 -75 23 -47 29 -51 81 -65 36 -10 70 -28 96 -51 39 -35
46 -37 254 -78 233 -45 273 -48 322 -27 30 12 55 9 282 -36 174 -34 264 -48
297 -44 34 4 50 1 59 -10 21 -25 42 -33 262 -95 233 -66 258 -68 332 -24 116
68 214 253 231 434 l7 68 141 60 c141 60 141 60 166 41 31 -23 431 -138 481
-138 19 0 60 12 90 28 119 60 219 242 244 445 6 46 8 48 66 78 39 19 63 38 69
55 14 36 13 493 -1 533 -6 17 -23 38 -38 45 -14 7 -120 43 -236 80 -115 37
-216 73 -223 80 -7 7 -78 150 -157 317 -90 191 -152 311 -167 321 -18 14 -115
28 -473 68 -247 27 -466 51 -485 53 -19 3 -44 2 -55 0z m1055 -510 c61 -120
113 -227 116 -238 3 -13 -2 -27 -13 -36 -18 -16 -415 -177 -443 -180 -29 -3
-39 1 -49 19 -17 32 -82 502 -72 520 11 20 283 130 323 131 25 1 34 -14 138
-216z m-560 27 c11 -11 20 -26 20 -32 0 -7 16 -118 35 -247 20 -144 30 -241
25 -250 -5 -9 -122 -61 -260 -115 l-251 -100 -21 21 -21 22 37 273 c20 150 39
280 42 290 3 9 33 28 67 42 130 54 282 114 295 115 6 1 21 -8 32 -19z m-1333
-19 l28 -8 -39 -16 c-58 -25 -130 -82 -177 -140 -23 -29 -40 -45 -37 -37 3 8
14 62 24 119 l19 103 77 -7 c42 -3 89 -10 105 -14z m361 -46 c62 -8 118 -15
125 -15 7 -1 -17 -14 -52 -30 -43 -20 -84 -51 -126 -94 -63 -64 -63 -64 -58
-32 7 43 -21 137 -47 161 -29 26 -25 37 13 31 17 -3 83 -13 145 -21z m-213 1
c30 -13 65 -58 65 -84 0 -6 -17 -13 -37 -17 -21 -4 -51 -14 -68 -22 -42 -22
-113 -80 -126 -105 -10 -19 -7 -26 32 -60 l44 -37 -72 -1 -71 0 -17 -50 c-16
-48 -22 -160 -10 -179 16 -27 -74 -14 -107 16 -40 36 -51 72 -46 154 13 230
251 452 413 385z m567 -63 c11 -10 18 -30 18 -52 0 -69 -72 -526 -86 -548 -19
-30 -62 -32 -204 -9 l-75 12 58 26 c67 32 157 113 202 183 92 143 101 308 22
394 l-22 24 34 -7 c19 -3 43 -14 53 -23z m-111 2 c28 -15 69 -68 69 -90 0 -6
-16 -12 -36 -13 -50 -4 -106 -34 -165 -91 l-50 -49 48 -46 48 -46 -73 0 -73 0
-17 -37 c-11 -26 -16 -65 -17 -121 l0 -84 -25 5 c-104 21 -146 98 -120 224 47
226 274 418 411 348z m-418 -522 c9 -17 27 -39 39 -49 l23 -16 -30 5 c-16 3
-96 13 -177 23 l-146 18 60 24 60 24 19 -21 c34 -36 41 -12 9 29 -16 21 -30
41 -30 44 0 3 27 6 59 6 57 0 87 14 62 29 -7 5 -5 14 7 31 17 25 17 25 23 -45
3 -38 13 -84 22 -102z m-412 13 c26 -18 17 -20 -43 -10 -34 6 -37 9 -32 33 12
54 14 56 34 24 10 -17 29 -38 41 -47z m2572 -418 c26 -35 27 -134 2 -195 -19
-47 -75 -103 -103 -103 -53 0 -89 76 -77 159 9 56 47 134 77 156 33 23 77 15
101 -17z m-3083 -273 c46 -24 74 -80 75 -148 0 -54 -3 -61 -33 -88 -92 -82
-225 32 -191 166 19 76 81 105 149 70z m931 -172 c39 -34 59 -79 59 -138 0
-35 -6 -51 -29 -77 -25 -28 -36 -33 -76 -33 -41 0 -51 4 -80 37 -43 47 -61
109 -46 160 24 78 109 103 172 51z m439 -2 c5 -11 10 -22 10 -24 0 -2 -32 -26
-72 -52 -54 -36 -75 -45 -87 -38 -34 21 -22 41 51 87 40 25 76 46 80 46 4 0
12 -9 18 -19z m593 -62 c35 -66 7 -199 -55 -255 -38 -35 -62 -38 -95 -10 -27
23 -28 28 -28 108 0 73 3 89 28 131 48 82 114 93 150 26z"/>
<path d="M1965 2713 c-107 -32 -172 -109 -174 -206 -1 -39 29 -109 51 -123 7
-5 42 -7 78 -6 48 2 74 -2 100 -16 41 -23 78 -78 62 -94 -7 -7 -15 -1 -26 21
-40 77 -172 89 -230 20 -21 -24 -26 -41 -26 -82 0 -114 66 -152 265 -152 129
0 158 7 232 57 101 68 113 230 24 311 -44 40 -93 57 -163 57 -51 0 -65 15 -24
26 25 6 128 -12 158 -27 27 -15 49 29 49 98 0 70 -13 83 -108 113 -78 24 -195
26 -268 3z"/>
<path d="M2490 2723 c-14 -2 -42 -11 -62 -20 l-38 -16 0 -277 c0 -274 0 -277
23 -297 47 -45 148 -52 225 -16 l32 15 0 277 c0 275 0 278 -22 298 -13 12 -41
26 -63 32 -41 11 -50 11 -95 4z"/>
<path d="M2823 2721 c-76 -19 -78 -23 -97 -203 -10 -89 -20 -210 -23 -268 l-6
-106 32 -26 c57 -49 190 -60 263 -22 24 12 28 21 28 57 0 38 -4 44 -38 64 -38
21 -71 67 -58 80 3 4 19 -8 34 -27 25 -29 36 -34 85 -38 54 -4 58 -3 93 32 42
42 44 43 44 17 0 -19 -52 -71 -71 -71 -12 0 -12 -42 1 -74 23 -62 175 -83 258
-36 50 28 49 12 22 272 -28 264 -35 299 -64 324 -48 42 -213 39 -235 -5 -4 -9
-16 -53 -26 -98 -12 -54 -23 -83 -32 -83 -16 0 -16 14 -3 60 14 49 -5 125 -36
139 -32 14 -133 21 -171 12z"/>
<path d="M3639 2716 c-86 -30 -145 -83 -181 -161 -32 -70 -33 -237 -2 -306 31
-66 78 -114 142 -146 51 -25 68 -28 157 -28 87 0 107 3 155 26 30 14 70 39 89
54 32 27 33 31 28 81 -3 28 -15 70 -26 93 -20 38 -24 41 -64 41 -49 0 -142
-23 -163 -40 -8 -7 -14 -21 -14 -31 0 -23 -16 -25 -24 -3 -3 9 -6 60 -6 115 0
81 3 99 15 99 10 0 15 -10 15 -34 0 -43 36 -68 106 -74 102 -8 164 37 164 121
0 83 -67 164 -161 191 -63 19 -180 20 -230 2z"/>
<path d="M4290 2720 c-43 -7 -130 -38 -130 -46 0 -1 -24 -114 -54 -249 -39
-175 -52 -253 -46 -270 22 -59 126 -94 218 -75 74 16 93 35 86 86 -6 38 -9 41
-48 50 -25 6 -42 15 -44 26 -3 14 1 15 35 2 48 -17 78 -17 125 0 21 7 40 11
43 8 10 -10 -18 -32 -50 -38 -32 -6 -32 -6 -23 -47 5 -23 16 -49 25 -59 20
-22 104 -40 156 -32 43 7 111 37 122 53 3 6 -22 121 -55 257 -65 269 -71 282
-145 314 -48 22 -153 32 -215 20z m89 -233 c15 -38 17 -80 4 -84 -12 -4 -18
10 -29 70 -7 42 11 52 25 14z"/>
<path d="M4862 2715 c-35 -8 -78 -22 -95 -33 l-32 -18 -3 -257 c-1 -166 1
-265 8 -277 18 -34 70 -54 140 -54 79 0 130 23 130 58 0 39 -21 85 -41 91 -27
9 -24 25 5 25 21 0 30 -11 56 -64 34 -72 68 -100 137 -111 62 -10 125 21 152
74 30 58 27 81 -17 124 -34 33 -41 36 -77 30 -37 -6 -39 -5 -26 10 7 10 19 17
25 17 18 0 73 61 85 93 17 43 13 117 -8 162 -24 52 -64 88 -126 116 -64 29
-219 36 -313 14z m173 -245 c0 -51 -29 -48 -33 3 -3 33 -1 38 15 35 13 -2 18
-12 18 -38z"/>
</g>
</svg>
